<svg width="343" height="244" viewBox="0 0 343 244" fill="none" xmlns="http://www.w3.org/2000/svg">
<g clip-path="url(#clip0)">
<path d="M-69.3881 150.158C-68.2573 161.122 -69.7994 172.222 -72.5238 182.903C-74.8369 191.989 -77.9639 201.718 -74.5285 210.436C-71.667 217.679 -64.6505 222.634 -57.2141 224.931C-49.7778 227.228 -41.8531 227.219 -34.0826 227.228L183.73 227.125" stroke="#1D2226" stroke-width="0.49" stroke-miterlimit="10"/>
<path d="M107.8 116.188C109.707 116.188 111.252 114.642 111.252 112.734C111.252 110.826 109.707 109.279 107.8 109.279C105.893 109.279 104.347 110.826 104.347 112.734C104.347 114.642 105.893 116.188 107.8 116.188Z" fill="#38434F"/>
<path d="M110.472 213.779H128.463" stroke="#788FA5" stroke-width="0.74" stroke-miterlimit="10"/>
<path d="M121.815 165.056C120.65 172.514 118.037 179.929 116.58 187.386C115.157 194.645 114.816 202.074 115.569 209.433C115.873 213.344 117.248 217.096 119.545 220.277C122.209 223.705 126.081 225.308 130.296 226.037C132.156 226.363 134.023 226.568 135.891 226.817C137.949 227.072 140.02 227.213 142.094 227.237C145.803 227.323 149.521 227.288 153.231 227.237L173.304 227.134H185.367" stroke="#1D2226" stroke-width="0.49" stroke-miterlimit="10"/>
<path d="M118.114 110.788C112.905 116.094 112.974 124.7 115.081 131.841C115.313 132.621 115.57 133.401 115.835 134.181" stroke="#1D2226" stroke-width="0.49" stroke-miterlimit="10"/>
<path d="M163.409 31L162.561 227.896" stroke="#788FA5" stroke-width="0.74" stroke-miterlimit="10"/>
<path d="M177.802 228L162.561 194.406L147.328 227.897" stroke="#788FA5" stroke-width="0.74" stroke-miterlimit="10"/>
<path d="M153.565 213.779H171.556" stroke="#788FA5" stroke-width="0.74" stroke-miterlimit="10"/>
<path d="M166.013 190.901H159.116V197.801H166.013V190.901Z" fill="#38434F"/>
<path d="M378.283 35.03H159.219" stroke="#788FA5" stroke-width="0.74" stroke-miterlimit="10"/>
<path d="M166.853 34.3949V202.404C166.853 209.156 164.172 215.632 159.4 220.406C154.628 225.18 148.157 227.862 141.408 227.862H344.057C347.399 227.862 350.707 227.204 353.794 225.925C356.882 224.645 359.686 222.77 362.049 220.406C364.412 218.042 366.286 215.235 367.565 212.147C368.844 209.058 369.502 205.747 369.502 202.404V34.3949H166.853Z" fill="#DCE6F1"/>
<path d="M165.53 153.538L164.771 156.934L160.967 156.084C160.523 155.984 160.137 155.713 159.894 155.329C159.65 154.945 159.569 154.48 159.668 154.036C159.768 153.593 160.039 153.207 160.423 152.963C160.806 152.719 161.271 152.638 161.714 152.737L165.519 153.588L165.53 153.538Z" fill="#E7A33E"/>
<path d="M164.798 156.743L165.557 153.346L169.361 154.197C169.805 154.296 170.191 154.568 170.434 154.952C170.678 155.336 170.759 155.801 170.66 156.244C170.561 156.688 170.289 157.074 169.906 157.318C169.522 157.561 169.057 157.643 168.614 157.543L164.81 156.693L164.798 156.743Z" fill="#DBE7E9"/>
<path d="M169.869 156.193C169.842 156.313 169.793 156.427 169.722 156.527C169.652 156.628 169.563 156.714 169.459 156.78C169.356 156.846 169.24 156.891 169.12 156.913C168.999 156.934 168.875 156.932 168.755 156.905L164.951 156.048L165.354 154.239L169.166 155.096C169.404 155.15 169.612 155.295 169.743 155.5C169.875 155.706 169.92 155.955 169.869 156.193Z" fill="#BFD3D6"/>
<path d="M163.073 48.3947L163.247 51.875L159.349 52.07C158.895 52.0927 158.45 51.9339 158.112 51.6285C157.775 51.323 157.573 50.896 157.55 50.4413C157.527 49.9866 157.686 49.5415 157.991 49.204C158.296 48.8664 158.723 48.6639 159.178 48.6412L163.076 48.4462L163.073 48.3947Z" fill="#E7A33E"/>
<path d="M166.073 50.7144L165.9 47.2299L169.793 47.036C170.247 47.0134 170.691 47.1721 171.028 47.4772C171.365 47.7823 171.567 48.2089 171.589 48.663C171.612 49.1171 171.454 49.5616 171.149 49.8987C170.844 50.2358 170.417 50.4379 169.963 50.4605L166.07 50.6544L166.073 50.7144Z" fill="#DBE7E9"/>
<path d="M170.829 48.8132C170.84 49.0555 170.758 49.293 170.598 49.4754C170.438 49.6577 170.213 49.7706 169.972 49.7903L166.074 49.9791L165.979 48.1274L169.878 47.9303C170.12 47.9255 170.354 48.0148 170.531 48.1795C170.709 48.3442 170.815 48.5715 170.829 48.8132Z" fill="#BFD3D6"/>
<path d="M119.279 227.896V118.485" stroke="#788FA5" stroke-width="0.74" stroke-miterlimit="10"/>
<path d="M134.52 228L119.279 194.406L104.047 227.897" stroke="#788FA5" stroke-width="0.74" stroke-miterlimit="10"/>
<path d="M122.732 190.901H115.835V197.801H122.732V190.901Z" fill="#38434F"/>
<path d="M107.523 107.086L107.599 118.135L125.649 118.012L125.574 106.964L107.523 107.086Z" fill="#56687A"/>
<path d="M129.851 115.177C131.28 115.177 132.438 114.018 132.438 112.588C132.438 111.158 131.28 109.999 129.851 109.999C128.422 109.999 127.264 111.158 127.264 112.588C127.264 114.018 128.422 115.177 129.851 115.177Z" fill="white"/>
<path d="M129.937 124.349L129.774 100.828C128.228 101.349 126.799 102.169 125.57 103.243C124.341 104.317 123.336 105.622 122.612 107.085C122.278 107.766 121.829 108.384 121.284 108.911C120.771 109.416 120.17 109.823 119.51 110.111L118.782 110.437V114.886L119.51 115.194C120.177 115.477 120.786 115.877 121.31 116.377C121.862 116.895 122.317 117.508 122.655 118.186C123.403 119.642 124.432 120.936 125.681 121.994C126.931 123.052 128.377 123.852 129.937 124.349Z" fill="#56687A"/>
<path d="M121.335 116.377C121.984 115.238 122.321 113.948 122.312 112.637C122.303 111.326 121.948 110.041 121.284 108.911C120.771 109.416 120.17 109.823 119.51 110.111L118.782 110.437V114.886L119.51 115.194C120.186 115.474 120.804 115.875 121.335 116.377Z" fill="#56687A"/>
<path d="M115.835 134.181C117.977 140.455 121.061 146.456 122.046 153.039C122.587 157.044 122.509 161.109 121.815 165.091" stroke="#1D2226" stroke-width="0.49" stroke-miterlimit="10"/>
<path d="M119.279 121.94C121.186 121.94 122.732 120.393 122.732 118.485C122.732 116.577 121.186 115.031 119.279 115.031C117.372 115.031 115.827 116.577 115.827 118.485C115.827 120.393 117.372 121.94 119.279 121.94Z" fill="#38434F"/>
<path d="M248.318 227.889V191.029C248.325 189.903 248.554 188.789 248.991 187.751C249.428 186.713 250.066 185.771 250.867 184.98C251.668 184.189 252.617 183.563 253.66 183.139C254.703 182.715 255.82 182.501 256.946 182.509H258.985" stroke="white" stroke-width="2.4" stroke-miterlimit="10"/>
<path d="M283.572 227.889V191.029C283.566 189.903 283.337 188.789 282.9 187.751C282.463 186.713 281.825 185.771 281.024 184.98C280.223 184.189 279.273 183.563 278.23 183.139C277.187 182.715 276.071 182.501 274.945 182.509H272.906" stroke="white" stroke-width="2.4" stroke-miterlimit="10"/>
<path d="M283.572 213.11H248.318" stroke="white" stroke-width="2.4" stroke-miterlimit="10"/>
<path d="M285.389 175.574H246.502V181.326H285.389V175.574Z" fill="#474139"/>
<path d="M245.02 154.727L229.274 156.759C227.486 156.988 225.776 157.632 224.281 158.639C222.785 159.645 221.545 160.987 220.658 162.557C219.772 164.128 219.263 165.883 219.174 167.684C219.084 169.486 219.415 171.283 220.141 172.934L224.082 182.5L242.742 175.711L266.37 176.002C277.327 176.002 278.004 165.365 278.004 165.365V154.727H245.02Z" fill="#762812"/>
<path d="M241.67 217.963C242.433 215.991 240.231 211.208 239.571 210.831L249.269 208.217C250.846 213.094 252.919 218.64 252.919 218.64L250.752 221.529H242.356L241.67 217.963Z" fill="#E9E5DF"/>
<path d="M240.197 168.074L253.691 210.762C246.734 218.476 235.417 216.351 235.417 216.351L223.423 180.572L240.197 168.074Z" fill="#762812"/>
<path d="M227.021 227.922H245.098L247.42 225.788L247.831 227.922H254.428L253.391 217.962C246.94 217.85 246.991 222.205 241.628 217.962C236.95 227.897 229.788 220.156 227.021 227.922Z" fill="#5D3B09"/>
<path d="M251.412 217.963C252.174 215.991 249.964 211.208 249.304 210.831L259.011 208.217C260.587 213.094 262.66 218.64 262.66 218.64L260.519 221.529H252.123L251.412 217.963Z" fill="#F3F2EF"/>
<path d="M253.502 154.727L237.755 156.759C236.121 156.971 234.551 157.529 233.149 158.397C231.748 159.265 230.547 160.421 229.628 161.79C228.708 163.158 228.091 164.707 227.817 166.333C227.544 167.959 227.619 169.625 228.04 171.219V171.331C228.187 171.878 228.373 172.413 228.597 172.934L228.64 173.028L243.898 216.385C243.898 216.385 255.215 218.545 262.172 210.796L251.805 178.111C251.73 177.857 251.714 177.588 251.76 177.326C251.806 177.064 251.912 176.817 252.07 176.603C252.228 176.39 252.433 176.216 252.67 176.095C252.906 175.974 253.168 175.91 253.433 175.908L274.851 176.037C285.809 176.037 286.486 165.399 286.486 165.399V154.761L253.502 154.727Z" fill="#B24020"/>
<path d="M262.951 97.6731C265.519 97.8451 268.074 97.1805 270.233 95.7788C271.411 95.0228 272.444 94.0618 273.283 92.9414C274.575 91.2127 275.376 89.1675 275.604 87.0213C275.831 84.875 275.476 82.7071 274.575 80.7459C273.674 78.7848 272.262 77.1029 270.486 75.8776C268.71 74.6522 266.637 73.9286 264.485 73.7832H263.911C261.068 73.7375 258.302 74.7037 256.105 76.5092C253.908 78.3147 252.424 80.842 251.917 83.6408C251.917 83.6408 251.917 83.6409 251.917 83.7009C251.894 83.9514 251.857 84.2005 251.805 84.4468C251.805 84.6182 251.805 84.7981 251.762 84.9781C251.572 88.144 252.642 91.2566 254.739 93.6354C256.835 96.0142 259.788 97.4659 262.951 97.6731Z" fill="#E8AE83"/>
<path d="M250.023 89.2551C249.937 90.5152 251.694 89.9409 251.411 92.1011C251.068 95.9584 251.257 96.5242 255.078 98.1529C258.899 99.7815 256.037 107.308 256.037 107.308L260.072 110.642L273.309 107.522C271.304 103.45 269.531 100.339 271.433 96.0271C271.931 94.9318 272.552 93.8965 273.283 92.9411L266.112 89.8124L265.718 89.6408L261.049 87.6008L260.732 87.4637L257.854 86.2121L251.916 83.6405C251.916 83.6405 251.916 83.6834 251.916 83.7006C251.894 83.9511 251.857 84.2002 251.805 84.4464C251.394 86.8894 250.1 88.1151 250.023 89.2551Z" fill="#E8AE83"/>
<path d="M260.741 87.5067L261.075 87.5667L266.344 88.5097C266.245 88.9272 266.176 89.3511 266.138 89.7784C265.956 91.1084 266.274 92.4587 267.031 93.5673C267.788 94.6759 268.929 95.4639 270.233 95.7787C270.626 95.8935 271.027 95.9766 271.432 96.0273C271.931 94.9321 272.552 93.8968 273.283 92.9413C274.574 91.2126 275.376 89.1674 275.603 87.0212C275.831 84.8749 275.475 82.707 274.575 80.7459C273.674 78.7847 272.261 77.1028 270.486 75.8775C268.71 74.6522 266.637 73.9285 264.484 73.7831H263.91C263.91 73.9202 263.551 75.6946 266.438 77.2118C266.438 77.2118 260.441 76.8775 258.967 81.2921C258.967 81.2921 258.282 84.1893 257.853 86.2037C257.776 86.538 257.716 86.8553 257.665 87.121C257.357 88.7839 259.901 90.1983 260.741 87.5067Z" fill="#5D392F"/>
<path d="M263.603 90.5576C265.183 90.5576 266.464 89.2757 266.464 87.6945C266.464 86.1133 265.183 84.8316 263.603 84.8316C262.022 84.8316 260.741 86.1133 260.741 87.6945C260.741 89.2757 262.022 90.5576 263.603 90.5576Z" fill="#E8AE83"/>
<path d="M261.461 103.553L260.031 109.553L258.36 103.544H255.739L254.882 109.553L267.93 110.119L273.31 106.63L261.461 103.553Z" fill="#D0E8FF"/>
<path d="M251.754 106.871C256.809 110.3 265.53 111.097 273.309 105.817L281.439 107.788C284.381 108.503 286.983 110.218 288.801 112.64C290.618 115.062 291.538 118.04 291.403 121.066L290.383 144.21C290.293 146.696 289.846 149.155 289.056 151.513L289.295 165.648C281.756 165.297 276.933 161.054 275.288 161.054L267.141 164.277C265.203 165.043 263.052 165.07 261.097 164.352C259.141 163.635 257.517 162.223 256.534 160.385L253.51 154.694L237.549 158.568C226.875 158.568 232.144 138.236 232.144 138.236L235.947 116.969C236.196 114.714 237.183 112.604 238.754 110.969C240.325 109.333 242.392 108.263 244.634 107.925L251.754 106.871Z" fill="#788FA5"/>
<path d="M261.461 103.554L273.31 100.365L275.023 106.237C275.023 106.237 266.987 109.331 263.218 109.511C259.448 109.691 261.461 103.554 261.461 103.554Z" fill="white"/>
<path d="M258.36 103.545L257.503 107.18C257.437 107.449 257.317 107.702 257.15 107.923C256.984 108.145 256.774 108.331 256.534 108.469C256.294 108.608 256.028 108.696 255.753 108.729C255.478 108.762 255.199 108.74 254.933 108.662C253.758 108.328 252.682 107.713 251.797 106.871L253.391 101.925L258.36 103.545Z" fill="white"/>
<path d="M235.468 161.944C235.633 161.979 235.804 161.961 235.957 161.893C236.111 161.826 236.239 161.712 236.325 161.567L239.161 162.425C241.474 163.282 247.265 162.373 247.265 162.373L256.921 161.207L253.305 154.418L247.403 156.201C246.817 156.38 246.189 156.365 245.612 156.158L245.029 155.961C244.819 155.887 244.605 155.827 244.387 155.781L241.303 155.224C240.869 155.141 240.42 155.214 240.035 155.43L237.285 156.947C237.106 157.043 236.954 157.181 236.839 157.348C236.724 157.514 236.651 157.706 236.625 157.907L236.565 158.327L236.077 158.43C235.963 158.454 235.858 158.51 235.773 158.59C235.688 158.67 235.627 158.772 235.597 158.884L235.52 159.141C234.063 159.176 233.669 161.207 235.468 161.944Z" fill="#F0C59F"/>
<path d="M252.979 156.45C252.815 156.485 252.644 156.467 252.49 156.399C252.337 156.332 252.208 156.217 252.122 156.073L249.287 156.93C246.982 157.788 241.191 156.879 241.191 156.879L236.419 156.296C235.875 156.231 235.356 156.034 234.906 155.723C234.456 155.412 234.088 154.995 233.835 154.51C233.582 154.024 233.451 153.484 233.453 152.937C233.456 152.389 233.591 151.85 233.849 151.367C234.216 150.679 234.809 150.138 235.529 149.838C236.249 149.538 237.051 149.497 237.798 149.721L241.045 150.699C241.63 150.888 242.259 150.888 242.844 150.699L243.427 150.493C243.637 150.423 243.852 150.365 244.069 150.321L247.162 149.756C247.593 149.681 248.037 149.754 248.421 149.961L251.172 151.479C251.348 151.577 251.499 151.715 251.614 151.881C251.728 152.048 251.803 152.239 251.831 152.439L251.891 152.859L252.388 152.962C252.5 152.99 252.603 153.047 252.687 153.126C252.771 153.206 252.833 153.306 252.868 153.416L252.936 153.673C254.384 153.673 254.787 155.713 252.979 156.45Z" fill="#E8AE83"/>
<path d="M236.778 227.922H254.872L257.203 225.788L257.605 227.922H264.202L263.174 217.962C256.723 217.85 256.766 222.205 251.411 217.962C246.708 227.897 239.537 220.156 236.778 227.922Z" fill="#915907"/>
<path d="M265.941 181.327V227.881" stroke="white" stroke-width="2.4" stroke-miterlimit="10"/>
<path d="M22.6409 210.487L19.9422 209.776L17.3549 210.59L12.8828 216.882L14.622 219.814L20.9874 220.954L22.6409 210.487Z" fill="#B9AF9F"/>
<path d="M-0.499023 227.803L7.69124 212.374L10.5698 211.345L8.93348 210.033L11.9149 204.402L19.9509 209.793C17.1237 215.348 13.4227 213.334 14.6221 219.84C4.0159 219.325 7.37425 228.952 -0.499023 227.803Z" fill="#09223B"/>
<path d="M18.846 187.661L37.3598 209.725L22.6413 210.488L17.501 227.837H47.0493C48.91 227.837 50.7418 227.377 52.3821 226.498C54.0224 225.619 55.4203 224.348 56.4519 222.799C57.4834 221.25 58.1166 219.469 58.2952 217.616C58.4738 215.763 58.1923 213.895 57.4756 212.176L45.4815 183.366L18.846 187.661Z" fill="#493D57"/>
<path d="M56.9268 215.493L57.5607 218.202L59.4969 220.113L67.1474 221.117L68.9123 218.211L66.9333 212.047L56.9268 215.493Z" fill="#B9AF9F"/>
<path d="M16.9263 183.34C20.7901 195.478 31.2335 196.147 40.0578 193.747C48.882 191.347 51.8377 190.412 51.8377 190.412L56.9009 215.494C63.4436 216.05 70.001 214.606 75.706 211.353L68.6209 178.78C67.913 175.505 65.9553 172.636 63.1646 170.783C60.3739 168.931 56.9707 168.242 53.6796 168.863L36.0997 172.154L16.9263 183.34Z" fill="#715E86"/>
<path d="M83.0568 227.838H65.5711L63.3179 225.772L62.9238 227.838H56.5498L57.5522 218.211C63.7805 218.1 63.7377 222.317 68.9123 218.211C73.4615 227.812 80.3838 220.329 83.0568 227.838Z" fill="#09223B"/>
<path d="M32.1415 104.444C31.8061 106.701 32.1366 109.007 33.0925 111.079C33.3895 111.717 33.7421 112.328 34.1463 112.905C34.2662 113.085 34.3947 113.247 34.5232 113.419C35.9384 115.223 37.8509 116.572 40.0244 117.301C42.1978 118.029 44.5368 118.104 46.7525 117.517C48.9681 116.929 50.9632 115.706 52.4912 113.996C54.0192 112.287 55.0131 110.167 55.3501 107.899C55.3501 107.744 55.3501 107.598 55.4101 107.444C55.4701 107.29 55.4615 106.878 55.4701 106.587C55.5168 105.368 55.3693 104.15 55.0331 102.978L54.956 102.712C54.3326 100.694 53.1752 98.8811 51.6062 97.4666C50.9262 96.8552 50.1789 96.3231 49.3788 95.8807C47.8472 95.0586 46.1533 94.5849 44.4177 94.493C42.6821 94.4011 40.9477 94.6935 39.338 95.3493C37.4556 96.1144 35.8033 97.3542 34.5421 98.948C33.2809 100.542 32.4539 102.435 32.1415 104.444Z" fill="#BF7461"/>
<path d="M33.0931 111.079C33.2901 111.688 33.47 112.271 33.6071 112.794L33.7099 113.222C34.5666 116.839 33.847 119.694 29.3149 124.794L39.5956 132.698L46.4494 134.729C46.4494 134.729 45.2585 121.254 49.3023 120.474C53.346 119.694 53.7058 118.957 54.1684 115.202C54.3398 113.068 55.9504 113.591 56.1389 112.365C56.3274 111.139 55.3336 109.854 55.4107 107.411C55.4145 107.124 55.4345 106.838 55.4707 106.553L40.4866 109.57L33.0931 111.079Z" fill="#BF7461"/>
<path d="M32.4677 98.6411C36.3949 98.6411 39.5785 95.456 39.5785 91.5266C39.5785 87.5973 36.3949 84.4119 32.4677 84.4119C28.5405 84.4119 25.3569 87.5973 25.3569 91.5266C25.3569 95.456 28.5405 98.6411 32.4677 98.6411Z" fill="#351A12"/>
<path d="M32.1415 104.444C31.8061 106.701 32.1366 109.007 33.0925 111.079C33.2895 111.687 33.4694 112.27 33.6065 112.793L33.7093 113.222C33.9835 113.282 34.2491 113.342 34.566 113.385C37.2047 113.762 39.8178 112.75 40.5203 109.561C40.6272 109.112 40.6875 108.652 40.7002 108.19L45.6263 106.236C47.1427 107.641 50.3126 105.833 48.6763 102.978C49.3873 103.553 50.2184 104.264 51.1265 104.213C51.4419 104.19 51.746 104.086 52.0093 103.911C52.2727 103.736 52.4863 103.495 52.6295 103.213C52.7726 102.931 52.8404 102.617 52.8262 102.301C52.812 101.985 52.7164 101.678 52.5486 101.41C52.7786 101.827 53.1043 102.184 53.499 102.45C53.8937 102.717 54.3461 102.886 54.819 102.944C54.9044 102.952 54.9905 102.952 55.076 102.944C55.4826 102.887 55.8667 102.723 56.1889 102.468C56.5111 102.214 56.7597 101.878 56.9094 101.495C57.0517 101.076 57.0994 100.63 57.049 100.19C56.9987 99.7495 56.8515 99.326 56.6181 98.9495C56.1249 98.1903 55.4185 97.5939 54.5876 97.2351C53.5989 96.7977 52.5509 96.5088 51.4777 96.3779C50.7373 96.361 50.0082 96.1917 49.3359 95.8807C47.8044 95.0586 46.1105 94.5849 44.3749 94.493C42.6393 94.4011 40.9048 94.6935 39.2952 95.3493C37.4207 96.1203 35.7772 97.3628 34.5238 98.9562C33.2705 100.55 32.4499 102.44 32.1415 104.444Z" fill="#351A12"/>
<path d="M43.4592 110.899C45.0064 110.899 46.2607 109.644 46.2607 108.096C46.2607 106.548 45.0064 105.293 43.4592 105.293C41.912 105.293 40.6577 106.548 40.6577 108.096C40.6577 109.644 41.912 110.899 43.4592 110.899Z" fill="#BF7461"/>
<path d="M34.0957 129.337L57.3386 136.066L61.982 118.854L68.6559 120.063L65.803 141.407C65.636 142.677 65.0404 143.852 64.115 144.737C63.1896 145.623 61.9897 146.165 60.714 146.276L36.5288 148.453L34.0957 129.337Z" fill="#955646"/>
<path d="M14.3736 184.78C21.8785 184.634 24.2945 180.957 30.5828 179.131C38.0155 177.041 45.1395 173.977 51.7695 170.019L54.3911 168.725C54.3911 168.725 55.5819 168.476 54.8195 165.296C53.2859 158.996 51.7524 157.29 53.2859 149.969C54.8195 142.649 52.9432 138.56 50.5615 135.32C48.1799 132.08 46.4064 129.903 46.4064 129.903C38.1391 129.646 36.2457 125.342 29.3234 124.76C22.1355 129.191 18.563 139.409 18.2289 145.881C17.8947 152.352 19.7538 158.824 16.01 172.102C14.8642 176.229 14.3132 180.497 14.3736 184.78Z" fill="#2199AC"/>
<path d="M37.917 132.937L61.1513 139.657L63.6272 131.677L72.4772 123.654L69.6243 144.997C69.4546 146.267 68.8584 147.442 67.9337 148.328C67.009 149.214 65.8107 149.76 64.5354 149.875L40.3415 152.095L37.917 132.937Z" fill="#BF7461"/>
<path d="M55.4018 137.54L54.8363 151.581L37.3335 155.524L37.9075 132.937L55.4018 137.54Z" fill="#2199AC"/>
<path d="M61.9819 118.854L62.8815 115.065V104.839L63.2156 104.076C63.3181 103.854 63.4951 103.675 63.7158 103.57C63.9365 103.465 64.1869 103.441 64.4236 103.502C64.566 103.539 64.699 103.605 64.8134 103.698C64.9278 103.79 65.021 103.906 65.0868 104.038C65.1526 104.17 65.1894 104.314 65.1947 104.461C65.2 104.608 65.1737 104.754 65.1175 104.89L64.792 105.748L68.9899 116.891L68.2703 121.726L61.9819 118.854Z" fill="#955646"/>
<path d="M77.1087 111.822L82.0781 110.541C82.7804 110.36 83.2029 109.644 83.0219 108.941L79.837 96.5768C79.656 95.8742 78.9401 95.4514 78.2379 95.6325L73.2684 96.914C72.5661 97.0951 72.1436 97.8115 72.3246 98.5141L75.5095 110.878C75.6905 111.581 76.4064 112.004 77.1087 111.822Z" fill="#38434F"/>
<path d="M69.1011 108.311L70.5832 113.917L75.852 113.823L73.7359 105.791L69.1011 108.311Z" fill="#38434F"/>
<path d="M75.9443 113.784L79.3325 112.89L77.2183 104.867L73.8301 105.761L75.9443 113.784Z" fill="#09223B"/>
<path d="M70.1547 141.021L72.3222 124.271C72.3961 123.664 72.6634 123.095 73.0847 122.651C73.0847 122.651 73.7958 121.88 73.9414 121.691L76.6315 119.437C76.8821 119.073 76.9973 118.634 76.9571 118.194L77.6596 115.982C77.7187 115.757 77.7086 115.518 77.6307 115.298C77.5528 115.078 77.4107 114.886 77.2227 114.748C77.4244 114.584 77.5717 114.363 77.6451 114.113C77.7185 113.864 77.7146 113.598 77.6339 113.351L76.2117 113.728H75.0209L71.0371 113.814C70.8553 113.817 70.6751 113.779 70.5101 113.702C70.3452 113.625 70.1999 113.512 70.0852 113.371C69.9704 113.229 69.8893 113.064 69.8479 112.887C69.8066 112.71 69.806 112.525 69.8463 112.348L70.1204 111.216C70.3045 110.724 70.286 110.178 70.069 109.699C70.0328 109.631 69.9797 109.572 69.9148 109.53C69.8498 109.488 69.7751 109.463 69.6979 109.458C69.6206 109.453 69.5433 109.468 69.4733 109.501C69.4033 109.534 69.343 109.585 69.298 109.648L68.2185 111.208C68.0118 111.507 67.8769 111.851 67.8244 112.211L66.9077 118.134C66.8464 118.56 66.8321 118.991 66.8649 119.42V119.857C66.9075 120.432 66.8612 121.01 66.7278 121.571L61.6475 137.969L70.1547 141.021Z" fill="#BF7461"/>
</g>
<defs>
<clipPath id="clip0">
<rect width="343" height="244" fill="white"/>
</clipPath>
</defs>
</svg>
